<svg xmlns:mydata="http://www.w3.org/2000/svg"
     version="1.1"
     xmlns="http://www.w3.org/2000/svg" xmlns:xlink="http://www.w3.org/1999/xlink" viewBox="200 100 300 250"
     class="svg-primary-tile">
    <g fill="#8DD737" fill-rule="nonzero" stroke="none" stroke-width="1" stroke-linecap="butt" stroke-linejoin="miter"
       stroke-miterlimit="10" stroke-dasharray="" stroke-dashoffset="0" font-family="none" font-weight="none"
       font-size="none" text-anchor="none" style="mix-blend-mode: normal">
        <g >
            <g >
                <path d="M271.24461,198.77112v0c1.54094,0 2.86414,0.55273 3.9696,1.65819c1.10546,1.10546 1.65819,2.44541 1.65819,4.01985v61.15193c0,1.54094 -0.55273,2.86414 -1.65819,3.9696c-1.10546,1.10546 -2.42866,1.65819 -3.9696,1.65819c-1.57444,0 -2.91439,-0.55273 -4.01985,-1.65819c-1.10546,-1.10546 -1.65819,-2.42866 -1.65819,-3.9696v-61.15193c0,-1.57444 0.55273,-2.91439 1.65819,-4.01985c1.10546,-1.10546 2.44541,-1.65819 4.01985,-1.65819zM247.829,229.22147v0c1.57444,0 2.91439,0.55273 4.01985,1.65819c1.10546,1.10546 1.65819,2.44541 1.65819,4.01985c0,1.57444 -0.55273,2.91439 -1.65819,4.01985c-1.10546,1.10546 -2.44541,1.65819 -4.01985,1.65819h-7.78845v25.02355c0,1.54094 -0.55273,2.86414 -1.65819,3.9696c-1.10546,1.10546 -2.44541,1.65819 -4.01985,1.65819c-1.54094,0 -2.86414,-0.55273 -3.9696,-1.65819c-1.10546,-1.10546 -1.65819,-2.42866 -1.65819,-3.9696v-61.15193c0,-1.57444 0.55273,-2.91439 1.65819,-4.01985c1.10546,-1.10546 2.42866,-1.65819 3.9696,-1.65819c1.57444,0 2.91439,0.55273 4.01985,1.65819c1.10546,1.10546 1.65819,2.44541 1.65819,4.01985v24.77231z"></path>
                <path d="M353.45049,263.44042v0c0.60298,1.44045 0.64485,2.83902 0.12562,4.19572c-0.51923,1.3567 -1.48232,2.37004 -2.88927,3.04001c-1.44045,0.60298 -2.83902,0.64485 -4.19572,0.12562c-1.3567,-0.51923 -2.37004,-1.48232 -3.04001,-2.88927l-22.81263,-50.19785l-22.81263,50.19785c-0.66997,1.40695 -1.69169,2.37004 -3.06513,2.88927c-1.37345,0.51923 -2.76365,0.47736 -4.17059,-0.12562c-1.40695,-0.66997 -2.37004,-1.68331 -2.88927,-3.04001c-0.51923,-1.3567 -0.47736,-2.75527 0.12562,-4.19572l27.5862,-60.74995c0.40198,-0.90447 0.98821,-1.64144 1.75868,-2.21092c0.1005,-0.1005 0.20099,-0.20099 0.30149,-0.30149c0.0335,0 0.05025,0 0.05025,0v0c0.1005,-0.067 0.20099,-0.13399 0.30149,-0.20099c0.1005,-0.067 0.18424,-0.11725 0.25124,-0.15074c0.0335,-0.0335 0.067,-0.05025 0.1005,-0.05025c0.0335,-0.0335 0.05025,-0.05025 0.05025,-0.05025c0.0335,0 0.067,-0.01675 0.1005,-0.05025c0.0335,-0.0335 0.08375,-0.05025 0.15074,-0.05025c0,0 0.01675,-0.01675 0.05025,-0.05025c0,0 0.01675,0 0.05025,0c0.0335,0 0.067,-0.01675 0.1005,-0.05025c0,0 0.01675,0 0.05025,0c0.0335,0 0.05025,-0.01675 0.05025,-0.05025c0.1005,-0.0335 0.18424,-0.05025 0.25124,-0.05025c0.50248,-0.16749 1.03846,-0.25124 1.60794,-0.25124c0.56948,0 1.10546,0.08375 1.60794,0.25124c0.0335,0 0.05025,0 0.05025,0v0c0.16749,0.067 0.31824,0.11725 0.45223,0.15074c0,0.0335 0.01675,0.05025 0.05025,0.05025v0c0.0335,0 0.05025,0 0.05025,0c0.0335,0.0335 0.05025,0.05025 0.05025,0.05025c0.13399,0.067 0.25124,0.13399 0.35174,0.20099c0.0335,0 0.05025,0 0.05025,0c0,0 0.01675,0 0.05025,0c0.30149,0.20099 0.58623,0.41873 0.85422,0.65323c0.70347,0.60298 1.2562,1.3232 1.65819,2.16067zM327.32148,259.77231v0c1.57444,0 2.91439,0.5611 4.01985,1.68331c1.10546,1.12221 1.65819,2.47053 1.65819,4.04497c0,1.54094 -0.55273,2.87252 -1.65819,3.99472c-1.10546,1.12221 -2.44541,1.68331 -4.01985,1.68331h-13.36599c-1.57444,0 -2.92276,-0.5611 -4.04497,-1.68331c-1.12221,-1.12221 -1.68331,-2.45378 -1.68331,-3.99472c0,-1.57444 0.5611,-2.92276 1.68331,-4.04497c1.12221,-1.12221 2.47053,-1.68331 4.04497,-1.68331z"
                      ></path>
                <path d="M364.40457,204.39891v0v61.15193v0c0,0 0,0.01675 0,0.05025v0v0c0,1.54094 0.55273,2.86414 1.65819,3.9696c1.10546,1.10546 2.42866,1.65819 3.9696,1.65819h37.33433c1.54094,0 2.86414,-0.55273 3.9696,-1.65819c1.10546,-1.10546 1.65819,-2.42866 1.65819,-3.9696c0,-1.57444 -0.55273,-2.90601 -1.65819,-3.99472c-1.10546,-1.08871 -2.42866,-1.63306 -3.9696,-1.63306h-31.6563v-55.57439c0,-1.54094 -0.55273,-2.86414 -1.65819,-3.9696c-1.10546,-1.10546 -2.42866,-1.65819 -3.9696,-1.65819c-1.57444,0 -2.91439,0.55273 -4.01985,1.65819c-1.10546,1.10546 -1.65819,2.42866 -1.65819,3.9696z"
                      ></path>
                <path d="M449.02236,199.12286v0c6.63275,0 12.67089,1.62469 18.11444,4.87407c5.44354,3.24938 9.78163,7.59584 13.01426,13.03938c3.23263,5.44354 4.84894,11.48169 4.84894,18.11444c0,6.63275 -1.61631,12.67089 -4.84894,18.11444c-3.23263,5.44354 -7.57071,9.78163 -13.01426,13.01426c-5.44354,3.23263 -11.48169,4.84894 -18.11444,4.84894c-6.63275,0 -12.67927,-1.61631 -18.13956,-4.84894c-5.46029,-3.23263 -9.80675,-7.57071 -13.03938,-13.01426c-3.23263,-5.44354 -4.84894,-11.48169 -4.84894,-18.11444c0,-6.63275 1.61631,-12.67089 4.84894,-18.11444c3.23263,-5.44354 7.57909,-9.79 13.03938,-13.03938c5.46029,-3.24938 11.50681,-4.87407 18.13956,-4.87407zM449.02236,259.82256v0c4.52233,0 8.65105,-1.10546 12.38616,-3.31637c3.73511,-2.21092 6.7165,-5.18393 8.94416,-8.91904c2.22767,-3.73511 3.3415,-7.88058 3.3415,-12.4364c0,-4.55583 -1.11383,-8.70129 -3.3415,-12.4364c-2.22767,-3.73511 -5.20905,-6.7165 -8.94416,-8.94416c-3.73511,-2.22767 -7.86383,-3.3415 -12.38616,-3.3415c-4.55583,0 -8.70129,1.11383 -12.4364,3.3415c-3.73511,2.22767 -6.7165,5.20905 -8.94416,8.94416c-2.22767,3.73511 -3.3415,7.88058 -3.3415,12.4364c0,4.55583 1.11383,8.70129 3.3415,12.4364c2.22767,3.73511 5.20905,6.70812 8.94416,8.91904c3.73511,2.21092 7.88058,3.31637 12.4364,3.31637z"
                      ></path>
            </g>
        </g>
    </g>
</svg>
